<svg version="1.1" preserveAspectRatio="none" xmlns="http://www.w3.org/2000/svg" width="500" height="500" viewBox="0 0 500 500"><rect width="100%" height="100%" fill="#FFFFFF" fill-opacity="1"/><svg viewBox="82.0483 203.0837 326.7549 67.0769" width="333" height="68.35890663001534" x="83.5px" y="215.8205px" xmlns="http://www.w3.org/2000/svg" xmlns:xlink="http://www.w3.org/1999/xlink" preserveAspectRatio="none"><defs></defs><style>.companyName {fill:#1e1e1e;fill-opacity:1;}.icon1 {fill:#EB3F3F;fill-opacity:1;}.icon3-str {stroke:#848383;stroke-opacity:1;}.shapeStroke-str {stroke:#1e1e1e;stroke-opacity:1;}</style><g opacity="1" transform="rotate(0 82.0483 230.1606)">
<svg width="326.7549" height="40" x="82.0483" y="230.1606" version="1.1" preserveAspectRatio="none" viewBox="0 -29.68 245.72 30.08">
  <g transform="matrix(1 0 0 1 0 0)" class="companyName"><path id="id-D6z1nYkh11" d="M15.96-7.04L18.12-0.76Q16.08 0.40 12.56 0.40L12.56 0.40Q7.96 0.40 5.48-1.82Q3-4.04 3-8.48L3-8.48L3-14.08L0-14.08L0-20.68L3-20.68L3-26.80L12.04-26.80L12.04-20.68L16.52-20.68L16.52-14.08L12.04-14.08L12.04-8.56Q12.04-7.56 12.56-7Q13.08-6.44 13.92-6.44L13.92-6.44Q15.08-6.44 15.96-7.04L15.96-7.04Z M43.08-10.96Q43.08-10.76 42.96-8.84L42.96-8.84L27.76-8.84Q28.24-7.60 29.36-6.94Q30.48-6.28 32.16-6.28L32.16-6.28Q33.60-6.28 34.58-6.64Q35.56-7 36.72-7.88L36.72-7.88L41.44-3.12Q38.24 0.40 31.88 0.40L31.88 0.40Q27.92 0.40 24.92-1.06Q21.92-2.52 20.28-5.12Q18.64-7.72 18.64-10.96L18.64-10.96Q18.64-14.24 20.26-16.82Q21.88-19.40 24.70-20.84Q27.52-22.28 31.04-22.28L31.04-22.28Q34.36-22.28 37.10-20.96Q39.84-19.64 41.46-17.08Q43.08-14.52 43.08-10.96L43.08-10.96ZM31.12-16.12Q29.72-16.12 28.80-15.36Q27.88-14.60 27.60-13.20L27.60-13.20L34.64-13.20Q34.36-14.56 33.44-15.34Q32.52-16.12 31.12-16.12L31.12-16.12Z M54.52-19.52Q56.92-22.28 61.60-22.28L61.60-22.28L61.60-14.28Q60.52-14.44 59.60-14.44L59.60-14.44Q54.96-14.44 54.96-9.72L54.96-9.72L54.96 0L45.92 0L45.92-21.88L54.52-21.88L54.52-19.52Z M72.76-19.52Q75.16-22.28 79.84-22.28L79.84-22.28L79.84-14.28Q78.76-14.44 77.84-14.44L77.84-14.44Q73.20-14.44 73.20-9.72L73.20-9.72L73.20 0L64.16 0L64.16-21.88L72.76-21.88L72.76-19.52Z M92-22.28Q97.76-22.28 100.80-19.70Q103.84-17.12 103.84-11.76L103.84-11.76L103.84 0L95.44 0L95.44-2.88Q93.88 0.40 89.24 0.40L89.24 0.40Q86.64 0.40 84.82-0.50Q83-1.40 82.06-2.94Q81.12-4.48 81.12-6.40L81.12-6.40Q81.12-9.64 83.60-11.32Q86.08-13 91.12-13L91.12-13L94.76-13Q94.32-15.56 90.64-15.56L90.64-15.56Q89.16-15.56 87.64-15.10Q86.12-14.64 85.04-13.84L85.04-13.84L82.16-19.80Q84.04-20.96 86.70-21.62Q89.36-22.28 92-22.28L92-22.28ZM91.96-5.04Q92.92-5.04 93.68-5.56Q94.44-6.08 94.80-7.12L94.80-7.12L94.80-8.64L92.56-8.64Q89.80-8.64 89.80-6.80L89.80-6.80Q89.80-6.04 90.38-5.54Q90.96-5.04 91.96-5.04L91.96-5.04Z M122.96-22.28Q127-22.28 129.46-19.84Q131.92-17.40 131.92-12.48L131.92-12.48L131.92 0L122.88 0L122.88-10.92Q122.88-14.68 120.20-14.68L120.20-14.68Q118.68-14.68 117.74-13.62Q116.80-12.56 116.80-10.28L116.80-10.28L116.80 0L107.76 0L107.76-29.68L116.80-29.68L116.80-20.12Q119.32-22.28 122.96-22.28L122.96-22.28Z M159.52-10.96Q159.52-10.76 159.40-8.84L159.40-8.84L144.20-8.84Q144.68-7.60 145.80-6.94Q146.92-6.28 148.60-6.28L148.60-6.28Q150.04-6.28 151.02-6.64Q152-7 153.16-7.88L153.16-7.88L157.88-3.12Q154.68 0.40 148.32 0.40L148.32 0.40Q144.36 0.40 141.36-1.06Q138.36-2.52 136.72-5.12Q135.08-7.72 135.08-10.96L135.08-10.96Q135.08-14.24 136.70-16.82Q138.32-19.40 141.14-20.84Q143.96-22.28 147.48-22.28L147.48-22.28Q150.80-22.28 153.54-20.96Q156.28-19.64 157.90-17.08Q159.52-14.52 159.52-10.96L159.52-10.96ZM147.56-16.12Q146.16-16.12 145.24-15.36Q144.32-14.60 144.04-13.20L144.04-13.20L151.08-13.20Q150.80-14.56 149.88-15.34Q148.96-16.12 147.56-16.12L147.56-16.12Z M171.56-22.28Q177.32-22.28 180.36-19.70Q183.40-17.12 183.40-11.76L183.40-11.76L183.40 0L175.00 0L175.00-2.88Q173.44 0.40 168.80 0.40L168.80 0.40Q166.20 0.40 164.38-0.50Q162.56-1.40 161.62-2.94Q160.68-4.48 160.68-6.40L160.68-6.40Q160.68-9.64 163.16-11.32Q165.64-13 170.68-13L170.68-13L174.32-13Q173.88-15.56 170.20-15.56L170.20-15.56Q168.72-15.56 167.20-15.10Q165.68-14.64 164.60-13.84L164.60-13.84L161.72-19.80Q163.60-20.96 166.26-21.62Q168.92-22.28 171.56-22.28L171.56-22.28ZM171.52-5.04Q172.48-5.04 173.24-5.56Q174.00-6.08 174.36-7.12L174.36-7.12L174.36-8.64L172.12-8.64Q169.36-8.64 169.36-6.80L169.36-6.80Q169.36-6.04 169.94-5.54Q170.52-5.04 171.52-5.04L171.52-5.04Z M187.32 0L187.32-29.68L196.36-29.68L196.36 0L187.32 0Z M217.12-7.04L219.28-0.76Q217.24 0.40 213.72 0.40L213.72 0.40Q209.12 0.40 206.64-1.82Q204.16-4.04 204.16-8.48L204.16-8.48L204.16-14.08L201.16-14.08L201.16-20.68L204.16-20.68L204.16-26.80L213.20-26.80L213.20-20.68L217.68-20.68L217.68-14.08L213.20-14.08L213.20-8.56Q213.20-7.56 213.72-7Q214.24-6.44 215.08-6.44L215.08-6.44Q216.24-6.44 217.12-7.04L217.12-7.04Z M236.76-22.28Q240.80-22.28 243.26-19.84Q245.72-17.40 245.72-12.48L245.72-12.48L245.72 0L236.68 0L236.68-10.92Q236.68-14.68 234.00-14.68L234.00-14.68Q232.48-14.68 231.54-13.62Q230.60-12.56 230.60-10.28L230.60-10.28L230.60 0L221.56 0L221.56-29.68L230.60-29.68L230.60-20.12Q233.12-22.28 236.76-22.28L236.76-22.28Z"/></g>
</svg>
</g><g opacity="1" transform="rotate(0 82.0483 203.0837)">
<svg width="80" height="11.0769" x="82.0483" y="203.0837" version="1.1" preserveAspectRatio="none" viewBox="0 0 80 11.0769">
  <defs><rect x="0" y="0" width="80" height="11.0769" rx="0%" ry="0%" id="id-bTUYkkdP1679482215385"></rect></defs><use class="icon1 shapeStroke-str" style="stroke-width:0;" xlink:href="#id-bTUYkkdP1679482215385"></use>
</svg>
</g></svg></svg>
